<svg width="229" height="196" viewBox="0 0 229 196" fill="none" xmlns="http://www.w3.org/2000/svg">
<path d="M41.1314 0C34.9149 0 29.9137 4.09609 29.9137 9.1875C29.9137 24.0789 40.8509 31.9266 48.1891 37.1711L48.7033 37.5539C56.3219 42.9898 59.8274 45.8992 59.8274 52.0625C59.8274 57.1539 64.8286 61.25 71.0451 61.25C77.2615 61.25 82.2627 57.1539 82.2627 52.0625C82.2627 37.1711 71.3255 29.3234 63.9873 24.0789L63.4732 23.6961C55.8545 18.2602 52.349 15.3508 52.349 9.1875C52.349 4.09609 47.3478 0 41.1314 0ZM14.9569 73.5C6.68384 73.5 0 78.9742 0 85.75V159.25C0 179.539 20.0983 196 44.8706 196H134.612C159.384 196 179.482 179.539 179.482 159.25H186.961C215.893 159.25 229 140.071 229 116.375C229 92.6789 215.893 73.5 186.961 73.5H164.525H14.9569ZM179.482 98H186.961C199.347 98 209.396 106.23 209.396 116.375C209.396 126.52 199.347 134.75 186.961 134.75H179.482V98ZM104.698 9.1875C104.698 4.09609 99.6968 0 93.4803 0C87.2639 0 82.2627 4.09609 82.2627 9.1875C82.2627 24.0789 93.1999 31.9266 100.538 37.1711L101.052 37.5539C108.671 42.9898 112.176 45.8992 112.176 52.0625C112.176 57.1539 117.178 61.25 123.394 61.25C129.61 61.25 134.612 57.1539 134.612 52.0625C134.612 37.1711 123.674 29.3234 116.336 24.0789L115.822 23.6961C108.203 18.2602 104.698 15.3508 104.698 9.1875Z" fill="#FAD6F4"/>
<rect x="55" y="169" width="75" height="18" rx="9" fill="#006A4E"/>
<path d="M72.6641 181.08V182H68.3984V181.08H72.6641ZM68.6211 173.469V182H67.4902V173.469H68.6211ZM77.0934 180.928V177.781C77.0934 177.5 77.0446 177.26 76.9469 177.061C76.8532 176.857 76.7126 176.703 76.5251 176.598C76.3376 176.488 76.109 176.434 75.8395 176.434C75.5505 176.434 75.2985 176.484 75.0837 176.586C74.8688 176.688 74.7028 176.822 74.5856 176.99C74.4684 177.158 74.4098 177.344 74.4098 177.547L73.3317 177.441C73.3317 177.168 73.3923 176.916 73.5133 176.686C73.6344 176.455 73.8044 176.254 74.0231 176.082C74.2458 175.91 74.5094 175.777 74.8141 175.684C75.1227 175.59 75.4645 175.543 75.8395 175.543C76.3005 175.543 76.7028 175.627 77.0465 175.795C77.3942 175.963 77.6637 176.213 77.8551 176.545C78.0505 176.877 78.1481 177.293 78.1481 177.793V180.723L77.0934 180.928ZM77.3337 178.273V179.094H75.8044C75.4645 179.094 75.1794 179.148 74.9489 179.258C74.7184 179.363 74.5446 179.504 74.4274 179.68C74.3102 179.852 74.2516 180.039 74.2516 180.242C74.2516 180.43 74.2946 180.6 74.3805 180.752C74.4704 180.9 74.6032 181.02 74.779 181.109C74.9587 181.195 75.1852 181.238 75.4587 181.238C75.6696 181.238 75.8844 181.199 76.1032 181.121C76.3258 181.039 76.529 180.936 76.7126 180.811C76.9001 180.682 77.0505 180.547 77.1637 180.406C77.2809 180.266 77.3415 180.135 77.3454 180.014L77.9079 180.857C77.8024 181.049 77.6344 181.242 77.404 181.438C77.1774 181.633 76.8844 181.797 76.5251 181.93C76.1696 182.059 75.7438 182.123 75.2477 182.123C74.8024 182.123 74.4235 182.045 74.111 181.889C73.8024 181.732 73.568 181.512 73.4079 181.227C73.2477 180.938 73.1676 180.602 73.1676 180.219C73.1676 179.91 73.2223 179.637 73.3317 179.398C73.445 179.156 73.611 178.953 73.8298 178.789C74.0524 178.621 74.3278 178.494 74.6559 178.408C74.984 178.318 75.363 178.273 75.7926 178.273H77.3337ZM80.1051 182.123C79.6247 182.123 79.2008 182.045 78.8337 181.889C78.4665 181.732 78.1579 181.514 77.9079 181.232C77.6579 180.947 77.4684 180.611 77.3395 180.225C77.2106 179.838 77.1462 179.414 77.1462 178.953V178.695C77.1462 178.23 77.2126 177.807 77.3454 177.424C77.4821 177.037 77.6715 176.703 77.9137 176.422C78.1598 176.141 78.4469 175.924 78.7751 175.771C79.1032 175.615 79.4606 175.539 79.8473 175.543C80.2692 175.543 80.6403 175.609 80.9606 175.742C81.2848 175.871 81.5563 176.061 81.7751 176.311C81.9938 176.557 82.1579 176.855 82.2673 177.207C82.3805 177.559 82.4372 177.953 82.4372 178.391V179.082H77.7262V178.25H81.3473V178.068C81.3473 177.771 81.2985 177.5 81.2008 177.254C81.1032 177.008 80.945 176.811 80.7262 176.662C80.5075 176.51 80.2145 176.434 79.8473 176.434C79.5778 176.434 79.3395 176.492 79.1325 176.609C78.9255 176.727 78.7497 176.889 78.6051 177.096C78.4645 177.303 78.3571 177.543 78.2829 177.816C78.2087 178.09 78.1715 178.383 78.1715 178.695V178.953C78.1715 179.27 78.2087 179.566 78.2829 179.844C78.3571 180.117 78.4723 180.359 78.6286 180.57C78.7848 180.777 78.984 180.939 79.2262 181.057C79.4723 181.174 79.7653 181.232 80.1051 181.232C80.57 181.232 80.945 181.162 81.2301 181.021C81.5153 180.877 81.7555 180.738 81.9508 180.605L82.3317 181.402C82.2458 181.469 82.1071 181.561 81.9157 181.678C81.7282 181.791 81.484 181.895 81.1833 181.988C80.8825 182.078 80.5231 182.123 80.1051 182.123ZM87.095 180.318C87.095 180.162 87.0599 180.018 86.9896 179.885C86.9232 179.748 86.7845 179.625 86.5736 179.516C86.3665 179.402 86.054 179.305 85.6361 179.223C85.2845 179.148 84.9661 179.061 84.681 178.959C84.3997 178.857 84.1595 178.734 83.9603 178.59C83.765 178.445 83.6146 178.275 83.5091 178.08C83.4036 177.885 83.3509 177.656 83.3509 177.395C83.3509 177.145 83.4056 176.908 83.515 176.686C83.6283 176.463 83.7865 176.266 83.9896 176.094C84.1966 175.922 84.4447 175.787 84.7337 175.689C85.0228 175.592 85.345 175.543 85.7005 175.543C86.2083 175.543 86.6419 175.633 87.0013 175.812C87.3607 175.992 87.6361 176.232 87.8275 176.533C88.0189 176.83 88.1146 177.16 88.1146 177.523H87.0306C87.0306 177.348 86.9779 177.178 86.8724 177.014C86.7708 176.846 86.6204 176.707 86.4212 176.598C86.2259 176.488 85.9857 176.434 85.7005 176.434C85.3997 176.434 85.1556 176.48 84.9681 176.574C84.7845 176.664 84.6497 176.779 84.5638 176.92C84.4818 177.061 84.4408 177.209 84.4408 177.365C84.4408 177.482 84.4603 177.588 84.4993 177.682C84.5423 177.771 84.6165 177.855 84.722 177.934C84.8275 178.008 84.9759 178.078 85.1673 178.145C85.3587 178.211 85.6029 178.277 85.8997 178.344C86.4193 178.461 86.847 178.602 87.1829 178.766C87.5189 178.93 87.7689 179.131 87.9329 179.369C88.097 179.607 88.179 179.896 88.179 180.236C88.179 180.514 88.1204 180.768 88.0033 180.998C87.89 181.229 87.724 181.428 87.5052 181.596C87.2904 181.76 87.0325 181.889 86.7318 181.982C86.4349 182.072 86.1009 182.117 85.7298 182.117C85.1712 182.117 84.6986 182.018 84.3118 181.818C83.9251 181.619 83.6322 181.361 83.4329 181.045C83.2337 180.729 83.1341 180.395 83.1341 180.043H84.224C84.2396 180.34 84.3255 180.576 84.4818 180.752C84.638 180.924 84.8294 181.047 85.056 181.121C85.2825 181.191 85.5072 181.227 85.7298 181.227C86.0267 181.227 86.2747 181.188 86.474 181.109C86.6771 181.031 86.8314 180.924 86.9368 180.787C87.0423 180.65 87.095 180.494 87.095 180.318ZM93.1295 176.92V182H92.0397V175.66H93.071L93.1295 176.92ZM92.9069 178.59L92.403 178.572C92.4069 178.139 92.4635 177.738 92.5729 177.371C92.6823 177 92.8444 176.678 93.0592 176.404C93.2741 176.131 93.5417 175.92 93.862 175.771C94.1823 175.619 94.5534 175.543 94.9753 175.543C95.2721 175.543 95.5456 175.586 95.7956 175.672C96.0456 175.754 96.2624 175.885 96.446 176.064C96.6295 176.244 96.7721 176.475 96.8737 176.756C96.9753 177.037 97.026 177.377 97.026 177.775V182H95.942V177.828C95.942 177.496 95.8854 177.23 95.7721 177.031C95.6628 176.832 95.5065 176.688 95.3034 176.598C95.1003 176.504 94.862 176.457 94.5885 176.457C94.2682 176.457 94.0006 176.514 93.7858 176.627C93.571 176.74 93.3991 176.896 93.2702 177.096C93.1413 177.295 93.0475 177.523 92.9889 177.781C92.9342 178.035 92.9069 178.305 92.9069 178.59ZM97.0143 177.992L96.2878 178.215C96.2917 177.867 96.3483 177.533 96.4577 177.213C96.571 176.893 96.7331 176.607 96.944 176.357C97.1588 176.107 97.4225 175.91 97.735 175.766C98.0475 175.617 98.4049 175.543 98.8073 175.543C99.1471 175.543 99.4479 175.588 99.7096 175.678C99.9753 175.768 100.198 175.906 100.378 176.094C100.561 176.277 100.7 176.514 100.794 176.803C100.887 177.092 100.934 177.436 100.934 177.834V182H99.8444V177.822C99.8444 177.467 99.7878 177.191 99.6745 176.996C99.5651 176.797 99.4088 176.658 99.2057 176.58C99.0065 176.498 98.7682 176.457 98.4909 176.457C98.2526 176.457 98.0417 176.498 97.8581 176.58C97.6745 176.662 97.5202 176.775 97.3952 176.92C97.2702 177.061 97.1745 177.223 97.1081 177.406C97.0456 177.59 97.0143 177.785 97.0143 177.992ZM104.942 182.117C104.5 182.117 104.1 182.043 103.741 181.895C103.385 181.742 103.078 181.529 102.821 181.256C102.567 180.982 102.371 180.658 102.235 180.283C102.098 179.908 102.03 179.498 102.03 179.053V178.807C102.03 178.291 102.106 177.832 102.258 177.43C102.41 177.023 102.618 176.68 102.879 176.398C103.141 176.117 103.438 175.904 103.77 175.76C104.102 175.615 104.446 175.543 104.801 175.543C105.254 175.543 105.645 175.621 105.973 175.777C106.305 175.934 106.576 176.152 106.787 176.434C106.998 176.711 107.155 177.039 107.256 177.418C107.358 177.793 107.409 178.203 107.409 178.648V179.135H102.674V178.25H106.325V178.168C106.309 177.887 106.25 177.613 106.149 177.348C106.051 177.082 105.895 176.863 105.68 176.691C105.465 176.52 105.172 176.434 104.801 176.434C104.555 176.434 104.328 176.486 104.121 176.592C103.914 176.693 103.737 176.846 103.588 177.049C103.44 177.252 103.325 177.5 103.243 177.793C103.16 178.086 103.119 178.424 103.119 178.807V179.053C103.119 179.354 103.16 179.637 103.243 179.902C103.328 180.164 103.451 180.395 103.612 180.594C103.776 180.793 103.973 180.949 104.203 181.062C104.438 181.176 104.703 181.232 105 181.232C105.383 181.232 105.707 181.154 105.973 180.998C106.239 180.842 106.471 180.633 106.67 180.371L107.326 180.893C107.19 181.1 107.016 181.297 106.805 181.484C106.594 181.672 106.334 181.824 106.026 181.941C105.721 182.059 105.36 182.117 104.942 182.117ZM109.494 176.656V182H108.41V175.66H109.465L109.494 176.656ZM111.475 175.625L111.469 176.633C111.379 176.613 111.293 176.602 111.211 176.598C111.133 176.59 111.043 176.586 110.941 176.586C110.691 176.586 110.471 176.625 110.279 176.703C110.088 176.781 109.926 176.891 109.793 177.031C109.66 177.172 109.555 177.34 109.477 177.535C109.402 177.727 109.354 177.938 109.33 178.168L109.025 178.344C109.025 177.961 109.062 177.602 109.137 177.266C109.215 176.93 109.334 176.633 109.494 176.375C109.654 176.113 109.857 175.91 110.104 175.766C110.354 175.617 110.65 175.543 110.994 175.543C111.072 175.543 111.162 175.553 111.264 175.572C111.365 175.588 111.436 175.605 111.475 175.625ZM114.726 182.117C114.285 182.117 113.884 182.043 113.525 181.895C113.17 181.742 112.863 181.529 112.605 181.256C112.351 180.982 112.156 180.658 112.019 180.283C111.882 179.908 111.814 179.498 111.814 179.053V178.807C111.814 178.291 111.89 177.832 112.043 177.43C112.195 177.023 112.402 176.68 112.664 176.398C112.925 176.117 113.222 175.904 113.554 175.76C113.886 175.615 114.23 175.543 114.586 175.543C115.039 175.543 115.429 175.621 115.757 175.777C116.09 175.934 116.361 176.152 116.572 176.434C116.783 176.711 116.939 177.039 117.041 177.418C117.142 177.793 117.193 178.203 117.193 178.648V179.135H112.459V178.25H116.109V178.168C116.093 177.887 116.035 177.613 115.933 177.348C115.836 177.082 115.679 176.863 115.465 176.691C115.25 176.52 114.957 176.434 114.586 176.434C114.34 176.434 114.113 176.486 113.906 176.592C113.699 176.693 113.521 176.846 113.373 177.049C113.224 177.252 113.109 177.5 113.027 177.793C112.945 178.086 112.904 178.424 112.904 178.807V179.053C112.904 179.354 112.945 179.637 113.027 179.902C113.113 180.164 113.236 180.395 113.396 180.594C113.56 180.793 113.757 180.949 113.988 181.062C114.222 181.176 114.488 181.232 114.785 181.232C115.168 181.232 115.492 181.154 115.757 180.998C116.023 180.842 116.256 180.633 116.455 180.371L117.111 180.893C116.974 181.1 116.8 181.297 116.59 181.484C116.379 181.672 116.119 181.824 115.81 181.941C115.506 182.059 115.144 182.117 114.726 182.117Z" fill="white"/>
<path d="M35.3206 97.5156V98.7422H29.1643V97.5156H35.3206ZM29.3987 92.625V104H27.8909V92.625H29.3987ZM36.6331 92.625V104H35.1331V92.625H36.6331ZM41.3123 102.695L43.6248 95.5469H45.1014L42.0623 104H41.0936L41.3123 102.695ZM39.3826 95.5469L41.7654 102.734L41.9295 104H40.9608L37.8983 95.5469H39.3826ZM45.6322 99.8672V99.6875C45.6322 99.0781 45.7207 98.513 45.8978 97.9922C46.0749 97.4661 46.3301 97.0104 46.6634 96.625C46.9968 96.2344 47.4004 95.9323 47.8744 95.7188C48.3483 95.5 48.8796 95.3906 49.4681 95.3906C50.0619 95.3906 50.5957 95.5 51.0697 95.7188C51.5489 95.9323 51.9551 96.2344 52.2884 96.625C52.627 97.0104 52.8848 97.4661 53.0619 97.9922C53.239 98.513 53.3275 99.0781 53.3275 99.6875V99.8672C53.3275 100.477 53.239 101.042 53.0619 101.562C52.8848 102.083 52.627 102.539 52.2884 102.93C51.9551 103.315 51.5515 103.617 51.0775 103.836C50.6088 104.049 50.0775 104.156 49.4838 104.156C48.89 104.156 48.3561 104.049 47.8822 103.836C47.4082 103.617 47.002 103.315 46.6634 102.93C46.3301 102.539 46.0749 102.083 45.8978 101.562C45.7207 101.042 45.6322 100.477 45.6322 99.8672ZM47.0775 99.6875V99.8672C47.0775 100.289 47.127 100.688 47.2259 101.062C47.3249 101.432 47.4733 101.76 47.6713 102.047C47.8744 102.333 48.127 102.56 48.4291 102.727C48.7311 102.888 49.0827 102.969 49.4838 102.969C49.8796 102.969 50.2259 102.888 50.5228 102.727C50.8249 102.56 51.0749 102.333 51.2728 102.047C51.4707 101.76 51.6192 101.432 51.7181 101.062C51.8223 100.688 51.8744 100.289 51.8744 99.8672V99.6875C51.8744 99.2708 51.8223 98.8776 51.7181 98.5078C51.6192 98.1328 51.4681 97.8021 51.265 97.5156C51.0671 97.224 50.8171 96.9948 50.515 96.8281C50.2181 96.6615 49.8692 96.5781 49.4681 96.5781C49.0723 96.5781 48.7233 96.6615 48.4213 96.8281C48.1244 96.9948 47.8744 97.224 47.6713 97.5156C47.4733 97.8021 47.3249 98.1328 47.2259 98.5078C47.127 98.8776 47.0775 99.2708 47.0775 99.6875ZM56.2333 96.875V104H54.788V95.5469H56.1943L56.2333 96.875ZM58.8739 95.5L58.8661 96.8438C58.7463 96.8177 58.6318 96.8021 58.5224 96.7969C58.4182 96.7865 58.2984 96.7812 58.163 96.7812C57.8297 96.7812 57.5354 96.8333 57.2802 96.9375C57.025 97.0417 56.8088 97.1875 56.6318 97.375C56.4547 97.5625 56.314 97.7865 56.2099 98.0469C56.1109 98.3021 56.0458 98.5833 56.0146 98.8906L55.6083 99.125C55.6083 98.6146 55.6578 98.1354 55.7568 97.6875C55.8609 97.2396 56.0198 96.8438 56.2333 96.5C56.4469 96.151 56.7177 95.8802 57.0458 95.6875C57.3791 95.4896 57.775 95.3906 58.2333 95.3906C58.3375 95.3906 58.4573 95.4036 58.5927 95.4297C58.7281 95.4505 58.8219 95.474 58.8739 95.5ZM65.0298 102.359V92H66.4829V104H65.1548L65.0298 102.359ZM59.3423 99.8672V99.7031C59.3423 99.0573 59.4204 98.4714 59.5766 97.9453C59.7381 97.4141 59.9646 96.9583 60.2563 96.5781C60.5532 96.1979 60.9048 95.9062 61.311 95.7031C61.7225 95.4948 62.1808 95.3906 62.686 95.3906C63.2173 95.3906 63.6808 95.4844 64.0766 95.6719C64.4777 95.8542 64.8162 96.1224 65.0923 96.4766C65.3735 96.8255 65.5949 97.2474 65.7563 97.7422C65.9178 98.237 66.0298 98.7969 66.0923 99.4219V100.141C66.035 100.76 65.923 101.318 65.7563 101.812C65.5949 102.307 65.3735 102.729 65.0923 103.078C64.8162 103.427 64.4777 103.695 64.0766 103.883C63.6756 104.065 63.2068 104.156 62.6704 104.156C62.1756 104.156 61.7225 104.049 61.311 103.836C60.9048 103.622 60.5532 103.323 60.2563 102.938C59.9646 102.552 59.7381 102.099 59.5766 101.578C59.4204 101.052 59.3423 100.482 59.3423 99.8672ZM60.7954 99.7031V99.8672C60.7954 100.289 60.837 100.685 60.9204 101.055C61.0089 101.424 61.1443 101.75 61.3266 102.031C61.5089 102.312 61.7407 102.534 62.0219 102.695C62.3032 102.852 62.6391 102.93 63.0298 102.93C63.5089 102.93 63.9021 102.828 64.2094 102.625C64.5219 102.422 64.7719 102.154 64.9594 101.82C65.1469 101.487 65.2928 101.125 65.3969 100.734V98.8516C65.3344 98.5651 65.2433 98.2891 65.1235 98.0234C65.0089 97.7526 64.8579 97.513 64.6704 97.3047C64.4881 97.0911 64.2615 96.9219 63.9907 96.7969C63.7251 96.6719 63.41 96.6094 63.0454 96.6094C62.6495 96.6094 62.3084 96.6927 62.0219 96.8594C61.7407 97.0208 61.5089 97.2448 61.3266 97.5312C61.1443 97.8125 61.0089 98.1406 60.9204 98.5156C60.837 98.8854 60.7954 99.2812 60.7954 99.7031ZM73.3653 102.555V98.2031C73.3653 97.8698 73.2975 97.5807 73.1621 97.3359C73.0319 97.0859 72.834 96.8932 72.5684 96.7578C72.3028 96.6224 71.9746 96.5547 71.584 96.5547C71.2194 96.5547 70.8991 96.6172 70.6231 96.7422C70.3522 96.8672 70.1387 97.0312 69.9824 97.2344C69.8314 97.4375 69.7559 97.6562 69.7559 97.8906H68.3106C68.3106 97.5885 68.3887 97.2891 68.5449 96.9922C68.7012 96.6953 68.9251 96.4271 69.2168 96.1875C69.5137 95.9427 69.8679 95.75 70.2793 95.6094C70.696 95.4635 71.1595 95.3906 71.6699 95.3906C72.2845 95.3906 72.8262 95.4948 73.2949 95.7031C73.7689 95.9115 74.1387 96.2266 74.4043 96.6484C74.6751 97.0651 74.8106 97.5885 74.8106 98.2188V102.156C74.8106 102.438 74.834 102.737 74.8809 103.055C74.933 103.372 75.0085 103.646 75.1074 103.875V104H73.5996C73.5267 103.833 73.4694 103.612 73.4278 103.336C73.3861 103.055 73.3653 102.794 73.3653 102.555ZM73.6153 98.875L73.6309 99.8906H72.1699C71.7585 99.8906 71.3913 99.9245 71.0684 99.9922C70.7455 100.055 70.4746 100.151 70.2559 100.281C70.0371 100.411 69.8705 100.576 69.7559 100.773C69.6413 100.966 69.584 101.193 69.584 101.453C69.584 101.719 69.6439 101.961 69.7637 102.18C69.8835 102.398 70.0632 102.573 70.3028 102.703C70.5475 102.828 70.847 102.891 71.2012 102.891C71.6439 102.891 72.0345 102.797 72.3731 102.609C72.7116 102.422 72.9798 102.193 73.1778 101.922C73.3809 101.651 73.4903 101.388 73.5059 101.133L74.1231 101.828C74.0866 102.047 73.9876 102.289 73.8262 102.555C73.6647 102.82 73.4486 103.076 73.1778 103.32C72.9121 103.56 72.5944 103.76 72.2246 103.922C71.86 104.078 71.4486 104.156 70.9903 104.156C70.4173 104.156 69.9147 104.044 69.4824 103.82C69.0554 103.596 68.722 103.297 68.4824 102.922C68.2481 102.542 68.1309 102.117 68.1309 101.648C68.1309 101.195 68.2194 100.797 68.3965 100.453C68.5736 100.104 68.8288 99.8151 69.1621 99.5859C69.4955 99.3516 69.8965 99.1745 70.3653 99.0547C70.834 98.9349 71.3574 98.875 71.9356 98.875H73.6153ZM78.1773 97.3516V104H76.732V95.5469H78.0992L78.1773 97.3516ZM77.8336 99.4531L77.232 99.4297C77.2372 98.8516 77.3231 98.3177 77.4898 97.8281C77.6565 97.3333 77.8909 96.9036 78.1929 96.5391C78.495 96.1745 78.8544 95.8932 79.2711 95.6953C79.6929 95.4922 80.1591 95.3906 80.6695 95.3906C81.0862 95.3906 81.4612 95.4479 81.7945 95.5625C82.1278 95.6719 82.4117 95.849 82.6461 96.0938C82.8856 96.3385 83.0679 96.6562 83.1929 97.0469C83.3179 97.4323 83.3804 97.9036 83.3804 98.4609V104H81.9273V98.4453C81.9273 98.0026 81.8622 97.6484 81.732 97.3828C81.6018 97.112 81.4117 96.9167 81.1617 96.7969C80.9117 96.6719 80.6044 96.6094 80.2398 96.6094C79.8804 96.6094 79.5523 96.6849 79.2554 96.8359C78.9638 96.987 78.7112 97.1953 78.4976 97.4609C78.2893 97.7266 78.1252 98.0312 78.0054 98.375C77.8909 98.7135 77.8336 99.0729 77.8336 99.4531ZM88.8796 95.5469H90.3327V105.008C90.3327 105.523 90.2494 105.961 90.0827 106.32C89.9212 106.68 89.6764 106.951 89.3483 107.133C89.0254 107.32 88.6165 107.414 88.1217 107.414C87.9915 107.414 87.8405 107.401 87.6686 107.375C87.4915 107.349 87.3431 107.318 87.2233 107.281L87.2311 106.117C87.3301 106.138 87.4421 106.154 87.5671 106.164C87.6921 106.18 87.8014 106.188 87.8952 106.188C88.1087 106.188 88.2884 106.148 88.4342 106.07C88.5801 105.992 88.6895 105.867 88.7624 105.695C88.8405 105.523 88.8796 105.294 88.8796 105.008V95.5469ZM88.7311 93.3047C88.7311 93.0703 88.804 92.8724 88.9499 92.7109C89.0957 92.5495 89.3066 92.4688 89.5827 92.4688C89.8639 92.4688 90.0775 92.5495 90.2233 92.7109C90.3691 92.8724 90.4421 93.0703 90.4421 93.3047C90.4421 93.5286 90.3691 93.7214 90.2233 93.8828C90.0775 94.0391 89.8639 94.1172 89.5827 94.1172C89.3066 94.1172 89.0957 94.0391 88.9499 93.8828C88.804 93.7214 88.7311 93.5286 88.7311 93.3047ZM95.8244 104.156C95.2359 104.156 94.702 104.057 94.2229 103.859C93.7489 103.656 93.3401 103.372 92.9963 103.008C92.6578 102.643 92.3974 102.211 92.2151 101.711C92.0328 101.211 91.9416 100.664 91.9416 100.07V99.7422C91.9416 99.0547 92.0432 98.4427 92.2463 97.9062C92.4494 97.3646 92.7255 96.9062 93.0744 96.5312C93.4234 96.1562 93.8192 95.8724 94.2619 95.6797C94.7046 95.487 95.163 95.3906 95.6369 95.3906C96.2411 95.3906 96.7619 95.4948 97.1994 95.7031C97.6421 95.9115 98.0041 96.2031 98.2854 96.5781C98.5666 96.9479 98.775 97.3854 98.9104 97.8906C99.0458 98.3906 99.1135 98.9375 99.1135 99.5312V100.18H92.801V99H97.6682V98.8906C97.6474 98.5156 97.5692 98.151 97.4338 97.7969C97.3036 97.4427 97.0953 97.151 96.8088 96.9219C96.5224 96.6927 96.1317 96.5781 95.6369 96.5781C95.3088 96.5781 95.0067 96.6484 94.7307 96.7891C94.4546 96.9245 94.2177 97.1276 94.0198 97.3984C93.8218 97.6693 93.6682 98 93.5588 98.3906C93.4494 98.7812 93.3948 99.2318 93.3948 99.7422V100.07C93.3948 100.471 93.4494 100.849 93.5588 101.203C93.6734 101.552 93.8375 101.859 94.051 102.125C94.2698 102.391 94.5328 102.599 94.8401 102.75C95.1526 102.901 95.5067 102.977 95.9026 102.977C96.413 102.977 96.8453 102.872 97.1994 102.664C97.5536 102.456 97.8635 102.177 98.1291 101.828L99.0041 102.523C98.8218 102.799 98.5901 103.062 98.3088 103.312C98.0276 103.562 97.6812 103.766 97.2698 103.922C96.8635 104.078 96.3817 104.156 95.8244 104.156ZM105.926 95.5469H107.238V103.82C107.238 104.565 107.087 105.201 106.785 105.727C106.483 106.253 106.061 106.651 105.519 106.922C104.983 107.198 104.363 107.336 103.66 107.336C103.368 107.336 103.025 107.289 102.629 107.195C102.238 107.107 101.853 106.953 101.472 106.734C101.097 106.521 100.782 106.232 100.527 105.867L101.285 105.008C101.639 105.435 102.009 105.732 102.394 105.898C102.785 106.065 103.17 106.148 103.551 106.148C104.009 106.148 104.405 106.062 104.738 105.891C105.071 105.719 105.329 105.464 105.512 105.125C105.699 104.792 105.793 104.38 105.793 103.891V97.4062L105.926 95.5469ZM100.105 99.8672V99.7031C100.105 99.0573 100.181 98.4714 100.332 97.9453C100.488 97.4141 100.709 96.9583 100.996 96.5781C101.288 96.1979 101.639 95.9062 102.051 95.7031C102.462 95.4948 102.926 95.3906 103.441 95.3906C103.972 95.3906 104.436 95.4844 104.832 95.6719C105.233 95.8542 105.571 96.1224 105.847 96.4766C106.129 96.8255 106.35 97.2474 106.512 97.7422C106.673 98.237 106.785 98.7969 106.847 99.4219V100.141C106.79 100.76 106.678 101.318 106.512 101.812C106.35 102.307 106.129 102.729 105.847 103.078C105.571 103.427 105.233 103.695 104.832 103.883C104.431 104.065 103.962 104.156 103.426 104.156C102.92 104.156 102.462 104.049 102.051 103.836C101.644 103.622 101.295 103.323 101.004 102.938C100.712 102.552 100.488 102.099 100.332 101.578C100.181 101.052 100.105 100.482 100.105 99.8672ZM101.551 99.7031V99.8672C101.551 100.289 101.592 100.685 101.676 101.055C101.764 101.424 101.897 101.75 102.074 102.031C102.256 102.312 102.488 102.534 102.769 102.695C103.051 102.852 103.387 102.93 103.777 102.93C104.256 102.93 104.652 102.828 104.965 102.625C105.277 102.422 105.525 102.154 105.707 101.82C105.894 101.487 106.04 101.125 106.144 100.734V98.8516C106.087 98.5651 105.998 98.2891 105.879 98.0234C105.764 97.7526 105.613 97.513 105.426 97.3047C105.243 97.0911 105.017 96.9219 104.746 96.7969C104.475 96.6719 104.157 96.6094 103.793 96.6094C103.397 96.6094 103.056 96.6927 102.769 96.8594C102.488 97.0208 102.256 97.2448 102.074 97.5312C101.897 97.8125 101.764 98.1406 101.676 98.5156C101.592 98.8854 101.551 99.2812 101.551 99.7031ZM112.69 92H114.143V102.359L114.018 104H112.69V92ZM119.854 99.7031V99.8672C119.854 100.482 119.781 101.052 119.636 101.578C119.49 102.099 119.276 102.552 118.995 102.938C118.714 103.323 118.37 103.622 117.964 103.836C117.558 104.049 117.091 104.156 116.565 104.156C116.029 104.156 115.558 104.065 115.151 103.883C114.75 103.695 114.412 103.427 114.136 103.078C113.86 102.729 113.638 102.307 113.472 101.812C113.31 101.318 113.198 100.76 113.136 100.141V99.4219C113.198 98.7969 113.31 98.237 113.472 97.7422C113.638 97.2474 113.86 96.8255 114.136 96.4766C114.412 96.1224 114.75 95.8542 115.151 95.6719C115.552 95.4844 116.018 95.3906 116.55 95.3906C117.081 95.3906 117.552 95.4948 117.964 95.7031C118.375 95.9062 118.719 96.1979 118.995 96.5781C119.276 96.9583 119.49 97.4141 119.636 97.9453C119.781 98.4714 119.854 99.0573 119.854 99.7031ZM118.401 99.8672V99.7031C118.401 99.2812 118.362 98.8854 118.284 98.5156C118.206 98.1406 118.081 97.8125 117.909 97.5312C117.737 97.2448 117.511 97.0208 117.229 96.8594C116.948 96.6927 116.602 96.6094 116.19 96.6094C115.826 96.6094 115.508 96.6719 115.237 96.7969C114.972 96.9219 114.745 97.0911 114.558 97.3047C114.37 97.513 114.216 97.7526 114.097 98.0234C113.982 98.2891 113.896 98.5651 113.839 98.8516V100.734C113.922 101.099 114.058 101.451 114.245 101.789C114.438 102.122 114.693 102.396 115.011 102.609C115.334 102.823 115.732 102.93 116.206 102.93C116.597 102.93 116.93 102.852 117.206 102.695C117.487 102.534 117.714 102.312 117.886 102.031C118.063 101.75 118.193 101.424 118.276 101.055C118.36 100.685 118.401 100.289 118.401 99.8672ZM122.901 92V104H121.448V92H122.901ZM128.377 104.156C127.788 104.156 127.255 104.057 126.775 103.859C126.301 103.656 125.893 103.372 125.549 103.008C125.21 102.643 124.95 102.211 124.768 101.711C124.585 101.211 124.494 100.664 124.494 100.07V99.7422C124.494 99.0547 124.596 98.4427 124.799 97.9062C125.002 97.3646 125.278 96.9062 125.627 96.5312C125.976 96.1562 126.372 95.8724 126.814 95.6797C127.257 95.487 127.715 95.3906 128.189 95.3906C128.794 95.3906 129.314 95.4948 129.752 95.7031C130.195 95.9115 130.557 96.2031 130.838 96.5781C131.119 96.9479 131.327 97.3854 131.463 97.8906C131.598 98.3906 131.666 98.9375 131.666 99.5312V100.18H125.354V99H130.221V98.8906C130.2 98.5156 130.122 98.151 129.986 97.7969C129.856 97.4427 129.648 97.151 129.361 96.9219C129.075 96.6927 128.684 96.5781 128.189 96.5781C127.861 96.5781 127.559 96.6484 127.283 96.7891C127.007 96.9245 126.77 97.1276 126.572 97.3984C126.374 97.6693 126.221 98 126.111 98.3906C126.002 98.7812 125.947 99.2318 125.947 99.7422V100.07C125.947 100.471 126.002 100.849 126.111 101.203C126.226 101.552 126.39 101.859 126.604 102.125C126.822 102.391 127.085 102.599 127.393 102.75C127.705 102.901 128.059 102.977 128.455 102.977C128.965 102.977 129.398 102.872 129.752 102.664C130.106 102.456 130.416 102.177 130.682 101.828L131.557 102.523C131.374 102.799 131.143 103.062 130.861 103.312C130.58 103.562 130.234 103.766 129.822 103.922C129.416 104.078 128.934 104.156 128.377 104.156ZM135.462 102.695L137.775 95.5469H139.252L136.212 104H135.244L135.462 102.695ZM133.533 95.5469L135.916 102.734L136.08 104H135.111L132.048 95.5469H133.533ZM147.415 104.156C146.826 104.156 146.292 104.057 145.813 103.859C145.339 103.656 144.93 103.372 144.587 103.008C144.248 102.643 143.988 102.211 143.805 101.711C143.623 101.211 143.532 100.664 143.532 100.07V99.7422C143.532 99.0547 143.633 98.4427 143.837 97.9062C144.04 97.3646 144.316 96.9062 144.665 96.5312C145.014 96.1562 145.409 95.8724 145.852 95.6797C146.295 95.487 146.753 95.3906 147.227 95.3906C147.831 95.3906 148.352 95.4948 148.79 95.7031C149.232 95.9115 149.594 96.2031 149.876 96.5781C150.157 96.9479 150.365 97.3854 150.501 97.8906C150.636 98.3906 150.704 98.9375 150.704 99.5312V100.18H144.391V99H149.258V98.8906C149.238 98.5156 149.159 98.151 149.024 97.7969C148.894 97.4427 148.686 97.151 148.399 96.9219C148.113 96.6927 147.722 96.5781 147.227 96.5781C146.899 96.5781 146.597 96.6484 146.321 96.7891C146.045 96.9245 145.808 97.1276 145.61 97.3984C145.412 97.6693 145.258 98 145.149 98.3906C145.04 98.7812 144.985 99.2318 144.985 99.7422V100.07C144.985 100.471 145.04 100.849 145.149 101.203C145.264 101.552 145.428 101.859 145.641 102.125C145.86 102.391 146.123 102.599 146.43 102.75C146.743 102.901 147.097 102.977 147.493 102.977C148.003 102.977 148.436 102.872 148.79 102.664C149.144 102.456 149.454 102.177 149.719 101.828L150.594 102.523C150.412 102.799 150.18 103.062 149.899 103.312C149.618 103.562 149.271 103.766 148.86 103.922C148.454 104.078 147.972 104.156 147.415 104.156ZM153.485 97.3516V104H152.039V95.5469H153.406L153.485 97.3516ZM153.141 99.4531L152.539 99.4297C152.544 98.8516 152.63 98.3177 152.797 97.8281C152.964 97.3333 153.198 96.9036 153.5 96.5391C153.802 96.1745 154.162 95.8932 154.578 95.6953C155 95.4922 155.466 95.3906 155.977 95.3906C156.393 95.3906 156.768 95.4479 157.102 95.5625C157.435 95.6719 157.719 95.849 157.953 96.0938C158.193 96.3385 158.375 96.6562 158.5 97.0469C158.625 97.4323 158.688 97.9036 158.688 98.4609V104H157.235V98.4453C157.235 98.0026 157.169 97.6484 157.039 97.3828C156.909 97.112 156.719 96.9167 156.469 96.7969C156.219 96.6719 155.912 96.6094 155.547 96.6094C155.188 96.6094 154.86 96.6849 154.563 96.8359C154.271 96.987 154.018 97.1953 153.805 97.4609C153.597 97.7266 153.432 98.0312 153.313 98.375C153.198 98.7135 153.141 99.0729 153.141 99.4531ZM74.3372 122.68H71.4544L71.4388 121.469H74.056C74.4883 121.469 74.8659 121.396 75.1888 121.25C75.5117 121.104 75.7617 120.896 75.9388 120.625C76.1211 120.349 76.2122 120.021 76.2122 119.641C76.2122 119.224 76.1315 118.885 75.9701 118.625C75.8138 118.359 75.5716 118.167 75.2435 118.047C74.9206 117.922 74.5091 117.859 74.0091 117.859H71.7904V128H70.2826V116.625H74.0091C74.5925 116.625 75.1133 116.685 75.5716 116.805C76.03 116.919 76.418 117.102 76.7357 117.352C77.0586 117.596 77.3034 117.909 77.4701 118.289C77.6367 118.669 77.7201 119.125 77.7201 119.656C77.7201 120.125 77.6003 120.549 77.3607 120.93C77.1211 121.305 76.7878 121.612 76.3607 121.852C75.9388 122.091 75.444 122.245 74.8763 122.312L74.3372 122.68ZM74.2669 128H70.8607L71.7122 126.773H74.2669C74.7461 126.773 75.1524 126.69 75.4857 126.523C75.8242 126.357 76.082 126.122 76.2591 125.82C76.4362 125.513 76.5247 125.151 76.5247 124.734C76.5247 124.312 76.4492 123.948 76.2982 123.641C76.1471 123.333 75.9102 123.096 75.5872 122.93C75.2643 122.763 74.8477 122.68 74.3372 122.68H72.1888L72.2044 121.469H75.1419L75.4622 121.906C76.0091 121.953 76.4727 122.109 76.8529 122.375C77.2331 122.635 77.5221 122.969 77.7201 123.375C77.9232 123.781 78.0247 124.229 78.0247 124.719C78.0247 125.427 77.8685 126.026 77.556 126.516C77.2487 127 76.8138 127.37 76.2513 127.625C75.6888 127.875 75.0274 128 74.2669 128ZM84.6649 126.555V122.203C84.6649 121.87 84.5972 121.581 84.4618 121.336C84.3316 121.086 84.1337 120.893 83.8681 120.758C83.6024 120.622 83.2743 120.555 82.8837 120.555C82.5191 120.555 82.1988 120.617 81.9227 120.742C81.6519 120.867 81.4384 121.031 81.2821 121.234C81.1311 121.438 81.0556 121.656 81.0556 121.891H79.6102C79.6102 121.589 79.6884 121.289 79.8446 120.992C80.0009 120.695 80.2248 120.427 80.5165 120.188C80.8134 119.943 81.1675 119.75 81.579 119.609C81.9957 119.464 82.4592 119.391 82.9696 119.391C83.5842 119.391 84.1259 119.495 84.5946 119.703C85.0686 119.911 85.4384 120.227 85.704 120.648C85.9748 121.065 86.1102 121.589 86.1102 122.219V126.156C86.1102 126.438 86.1337 126.737 86.1806 127.055C86.2326 127.372 86.3082 127.646 86.4071 127.875V128H84.8993C84.8264 127.833 84.7691 127.612 84.7274 127.336C84.6858 127.055 84.6649 126.794 84.6649 126.555ZM84.9149 122.875L84.9306 123.891H83.4696C83.0582 123.891 82.691 123.924 82.3681 123.992C82.0451 124.055 81.7743 124.151 81.5556 124.281C81.3368 124.411 81.1701 124.576 81.0556 124.773C80.941 124.966 80.8837 125.193 80.8837 125.453C80.8837 125.719 80.9436 125.961 81.0634 126.18C81.1832 126.398 81.3629 126.573 81.6024 126.703C81.8472 126.828 82.1467 126.891 82.5009 126.891C82.9436 126.891 83.3342 126.797 83.6727 126.609C84.0113 126.422 84.2795 126.193 84.4774 125.922C84.6806 125.651 84.7899 125.388 84.8056 125.133L85.4227 125.828C85.3863 126.047 85.2873 126.289 85.1259 126.555C84.9644 126.82 84.7483 127.076 84.4774 127.32C84.2118 127.56 83.8941 127.76 83.5243 127.922C83.1597 128.078 82.7483 128.156 82.2899 128.156C81.717 128.156 81.2144 128.044 80.7821 127.82C80.355 127.596 80.0217 127.297 79.7821 126.922C79.5477 126.542 79.4306 126.117 79.4306 125.648C79.4306 125.195 79.5191 124.797 79.6962 124.453C79.8733 124.104 80.1285 123.815 80.4618 123.586C80.7951 123.352 81.1962 123.174 81.6649 123.055C82.1337 122.935 82.6571 122.875 83.2352 122.875H84.9149ZM89.477 120.875V128H88.0317V119.547H89.4379L89.477 120.875ZM92.1176 119.5L92.1098 120.844C91.99 120.818 91.8754 120.802 91.7661 120.797C91.6619 120.786 91.5421 120.781 91.4067 120.781C91.0734 120.781 90.7791 120.833 90.5239 120.938C90.2687 121.042 90.0525 121.188 89.8754 121.375C89.6984 121.562 89.5577 121.786 89.4536 122.047C89.3546 122.302 89.2895 122.583 89.2582 122.891L88.852 123.125C88.852 122.615 88.9015 122.135 89.0004 121.688C89.1046 121.24 89.2635 120.844 89.477 120.5C89.6905 120.151 89.9614 119.88 90.2895 119.688C90.6228 119.49 91.0187 119.391 91.477 119.391C91.5812 119.391 91.701 119.404 91.8364 119.43C91.9718 119.451 92.0655 119.474 92.1176 119.5ZM94.6719 119.547V128H93.2188V119.547H94.6719ZM93.1094 117.305C93.1094 117.07 93.1797 116.872 93.3203 116.711C93.4661 116.549 93.6797 116.469 93.9609 116.469C94.237 116.469 94.4479 116.549 94.5938 116.711C94.7448 116.872 94.8203 117.07 94.8203 117.305C94.8203 117.529 94.7448 117.721 94.5938 117.883C94.4479 118.039 94.237 118.117 93.9609 118.117C93.6797 118.117 93.4661 118.039 93.3203 117.883C93.1797 117.721 93.1094 117.529 93.1094 117.305ZM101.562 125.758C101.562 125.549 101.515 125.357 101.421 125.18C101.333 124.997 101.148 124.833 100.867 124.688C100.591 124.536 100.174 124.406 99.6167 124.297C99.148 124.198 98.7235 124.081 98.3433 123.945C97.9683 123.81 97.648 123.646 97.3824 123.453C97.122 123.26 96.9214 123.034 96.7808 122.773C96.6402 122.513 96.5699 122.208 96.5699 121.859C96.5699 121.526 96.6428 121.211 96.7886 120.914C96.9397 120.617 97.1506 120.354 97.4214 120.125C97.6975 119.896 98.0282 119.716 98.4136 119.586C98.799 119.456 99.2287 119.391 99.7027 119.391C100.38 119.391 100.958 119.51 101.437 119.75C101.916 119.99 102.283 120.31 102.539 120.711C102.794 121.107 102.921 121.547 102.921 122.031H101.476C101.476 121.797 101.406 121.57 101.265 121.352C101.13 121.128 100.929 120.943 100.664 120.797C100.403 120.651 100.083 120.578 99.7027 120.578C99.3016 120.578 98.9761 120.641 98.7261 120.766C98.4813 120.885 98.3016 121.039 98.1871 121.227C98.0777 121.414 98.023 121.612 98.023 121.82C98.023 121.977 98.049 122.117 98.1011 122.242C98.1584 122.362 98.2574 122.474 98.398 122.578C98.5386 122.677 98.7365 122.771 98.9917 122.859C99.247 122.948 99.5725 123.036 99.9683 123.125C100.661 123.281 101.231 123.469 101.679 123.688C102.127 123.906 102.46 124.174 102.679 124.492C102.898 124.81 103.007 125.195 103.007 125.648C103.007 126.018 102.929 126.357 102.773 126.664C102.622 126.971 102.401 127.237 102.109 127.461C101.822 127.68 101.479 127.852 101.078 127.977C100.682 128.096 100.237 128.156 99.7417 128.156C98.997 128.156 98.3667 128.023 97.8511 127.758C97.3355 127.492 96.9449 127.148 96.6792 126.727C96.4136 126.305 96.2808 125.859 96.2808 125.391H97.7339C97.7548 125.786 97.8693 126.102 98.0777 126.336C98.286 126.565 98.5412 126.729 98.8433 126.828C99.1454 126.922 99.4449 126.969 99.7417 126.969C100.138 126.969 100.468 126.917 100.734 126.812C101.005 126.708 101.21 126.565 101.351 126.383C101.492 126.201 101.562 125.992 101.562 125.758ZM108.093 119.547V120.656H103.523V119.547H108.093ZM105.069 117.492H106.515V125.906C106.515 126.193 106.559 126.409 106.648 126.555C106.736 126.701 106.851 126.797 106.991 126.844C107.132 126.891 107.283 126.914 107.444 126.914C107.564 126.914 107.689 126.904 107.819 126.883C107.955 126.857 108.056 126.836 108.124 126.82L108.132 128C108.017 128.036 107.866 128.07 107.679 128.102C107.497 128.138 107.275 128.156 107.015 128.156C106.661 128.156 106.335 128.086 106.038 127.945C105.741 127.805 105.504 127.57 105.327 127.242C105.155 126.909 105.069 126.461 105.069 125.898V117.492ZM114.421 126.555V122.203C114.421 121.87 114.353 121.581 114.217 121.336C114.087 121.086 113.889 120.893 113.624 120.758C113.358 120.622 113.03 120.555 112.639 120.555C112.275 120.555 111.954 120.617 111.678 120.742C111.408 120.867 111.194 121.031 111.038 121.234C110.887 121.438 110.811 121.656 110.811 121.891H109.366C109.366 121.589 109.444 121.289 109.6 120.992C109.757 120.695 109.98 120.427 110.272 120.188C110.569 119.943 110.923 119.75 111.335 119.609C111.751 119.464 112.215 119.391 112.725 119.391C113.34 119.391 113.882 119.495 114.35 119.703C114.824 119.911 115.194 120.227 115.46 120.648C115.73 121.065 115.866 121.589 115.866 122.219V126.156C115.866 126.438 115.889 126.737 115.936 127.055C115.988 127.372 116.064 127.646 116.163 127.875V128H114.655C114.582 127.833 114.525 127.612 114.483 127.336C114.441 127.055 114.421 126.794 114.421 126.555ZM114.671 122.875L114.686 123.891H113.225C112.814 123.891 112.447 123.924 112.124 123.992C111.801 124.055 111.53 124.151 111.311 124.281C111.092 124.411 110.926 124.576 110.811 124.773C110.697 124.966 110.639 125.193 110.639 125.453C110.639 125.719 110.699 125.961 110.819 126.18C110.939 126.398 111.118 126.573 111.358 126.703C111.603 126.828 111.902 126.891 112.257 126.891C112.699 126.891 113.09 126.797 113.428 126.609C113.767 126.422 114.035 126.193 114.233 125.922C114.436 125.651 114.546 125.388 114.561 125.133L115.178 125.828C115.142 126.047 115.043 126.289 114.882 126.555C114.72 126.82 114.504 127.076 114.233 127.32C113.967 127.56 113.65 127.76 113.28 127.922C112.915 128.078 112.504 128.156 112.046 128.156C111.473 128.156 110.97 128.044 110.538 127.82C110.111 127.596 109.777 127.297 109.538 126.922C109.303 126.542 109.186 126.117 109.186 125.648C109.186 125.195 109.275 124.797 109.452 124.453C109.629 124.104 109.884 123.815 110.217 123.586C110.551 123.352 110.952 123.174 111.421 123.055C111.889 122.935 112.413 122.875 112.991 122.875H114.671Z" fill="black"/>
<path d="M35.1211 146.469V155H33.9902V146.469H35.1211ZM38.6953 150.307V151.232H34.875V150.307H38.6953ZM39.2754 146.469V147.395H34.875V146.469H39.2754ZM41.1266 149.656V155H40.0426V148.66H41.0973L41.1266 149.656ZM43.1071 148.625L43.1012 149.633C43.0114 149.613 42.9255 149.602 42.8434 149.598C42.7653 149.59 42.6755 149.586 42.5739 149.586C42.3239 149.586 42.1032 149.625 41.9118 149.703C41.7204 149.781 41.5583 149.891 41.4255 150.031C41.2926 150.172 41.1872 150.34 41.109 150.535C41.0348 150.727 40.986 150.938 40.9626 151.168L40.6579 151.344C40.6579 150.961 40.695 150.602 40.7692 150.266C40.8473 149.93 40.9665 149.633 41.1266 149.375C41.2868 149.113 41.4899 148.91 41.736 148.766C41.986 148.617 42.2829 148.543 42.6266 148.543C42.7048 148.543 42.7946 148.553 42.8962 148.572C42.9977 148.588 43.068 148.605 43.1071 148.625ZM47.349 153.916V150.652C47.349 150.402 47.2982 150.186 47.1966 150.002C47.099 149.814 46.9505 149.67 46.7513 149.568C46.5521 149.467 46.306 149.416 46.013 149.416C45.7396 149.416 45.4993 149.463 45.2923 149.557C45.0892 149.65 44.929 149.773 44.8118 149.926C44.6986 150.078 44.6419 150.242 44.6419 150.418H43.5579C43.5579 150.191 43.6165 149.967 43.7337 149.744C43.8509 149.521 44.0189 149.32 44.2376 149.141C44.4603 148.957 44.7259 148.812 45.0345 148.707C45.347 148.598 45.6947 148.543 46.0775 148.543C46.5384 148.543 46.9447 148.621 47.2962 148.777C47.6517 148.934 47.929 149.17 48.1283 149.486C48.3314 149.799 48.4329 150.191 48.4329 150.664V153.617C48.4329 153.828 48.4505 154.053 48.4857 154.291C48.5247 154.529 48.5814 154.734 48.6556 154.906V155H47.5247C47.47 154.875 47.4271 154.709 47.3958 154.502C47.3646 154.291 47.349 154.096 47.349 153.916ZM47.5365 151.156L47.5482 151.918H46.4525C46.1439 151.918 45.8685 151.943 45.6263 151.994C45.3841 152.041 45.181 152.113 45.0169 152.211C44.8529 152.309 44.7279 152.432 44.6419 152.58C44.556 152.725 44.513 152.895 44.513 153.09C44.513 153.289 44.5579 153.471 44.6478 153.635C44.7376 153.799 44.8724 153.93 45.0521 154.027C45.2357 154.121 45.4603 154.168 45.7259 154.168C46.0579 154.168 46.3509 154.098 46.6048 153.957C46.8587 153.816 47.0599 153.645 47.2083 153.441C47.3607 153.238 47.4427 153.041 47.4544 152.85L47.9173 153.371C47.89 153.535 47.8158 153.717 47.6947 153.916C47.5736 154.115 47.4115 154.307 47.2083 154.49C47.0091 154.67 46.7708 154.82 46.4935 154.941C46.22 155.059 45.9115 155.117 45.5677 155.117C45.138 155.117 44.7611 155.033 44.4368 154.865C44.1165 154.697 43.8665 154.473 43.6868 154.191C43.5111 153.906 43.4232 153.588 43.4232 153.236C43.4232 152.896 43.4896 152.598 43.6224 152.34C43.7552 152.078 43.9466 151.861 44.1966 151.689C44.4466 151.514 44.7474 151.381 45.099 151.291C45.4505 151.201 45.8431 151.156 46.2767 151.156H47.5365ZM55.1237 154.227C55.3815 154.227 55.6198 154.174 55.8385 154.068C56.0573 153.963 56.237 153.818 56.3776 153.635C56.5182 153.447 56.5983 153.234 56.6178 152.996H57.6491C57.6295 153.371 57.5026 153.721 57.2682 154.045C57.0378 154.365 56.735 154.625 56.36 154.824C55.985 155.02 55.5729 155.117 55.1237 155.117C54.6471 155.117 54.2311 155.033 53.8756 154.865C53.5241 154.697 53.2311 154.467 52.9967 154.174C52.7663 153.881 52.5924 153.545 52.4753 153.166C52.362 152.783 52.3053 152.379 52.3053 151.953V151.707C52.3053 151.281 52.362 150.879 52.4753 150.5C52.5924 150.117 52.7663 149.779 52.9967 149.486C53.2311 149.193 53.5241 148.963 53.8756 148.795C54.2311 148.627 54.6471 148.543 55.1237 148.543C55.6198 148.543 56.0534 148.645 56.4245 148.848C56.7956 149.047 57.0866 149.32 57.2975 149.668C57.5124 150.012 57.6295 150.402 57.6491 150.84H56.6178C56.5983 150.578 56.5241 150.342 56.3952 150.131C56.2702 149.92 56.0983 149.752 55.8795 149.627C55.6647 149.498 55.4128 149.434 55.1237 149.434C54.7917 149.434 54.5124 149.5 54.2858 149.633C54.0631 149.762 53.8854 149.938 53.7526 150.16C53.6237 150.379 53.5299 150.623 53.4713 150.893C53.4167 151.158 53.3893 151.43 53.3893 151.707V151.953C53.3893 152.23 53.4167 152.504 53.4713 152.773C53.526 153.043 53.6178 153.287 53.7467 153.506C53.8795 153.725 54.0573 153.9 54.2799 154.033C54.5065 154.162 54.7878 154.227 55.1237 154.227ZM62.3421 153.916V150.652C62.3421 150.402 62.2913 150.186 62.1898 150.002C62.0921 149.814 61.9437 149.67 61.7445 149.568C61.5452 149.467 61.2991 149.416 61.0062 149.416C60.7327 149.416 60.4925 149.463 60.2855 149.557C60.0823 149.65 59.9222 149.773 59.805 149.926C59.6917 150.078 59.6351 150.242 59.6351 150.418H58.5511C58.5511 150.191 58.6097 149.967 58.7269 149.744C58.8441 149.521 59.012 149.32 59.2308 149.141C59.4534 148.957 59.7191 148.812 60.0277 148.707C60.3402 148.598 60.6878 148.543 61.0706 148.543C61.5316 148.543 61.9378 148.621 62.2894 148.777C62.6448 148.934 62.9222 149.17 63.1214 149.486C63.3245 149.799 63.4261 150.191 63.4261 150.664V153.617C63.4261 153.828 63.4437 154.053 63.4788 154.291C63.5179 154.529 63.5745 154.734 63.6488 154.906V155H62.5179C62.4632 154.875 62.4202 154.709 62.389 154.502C62.3577 154.291 62.3421 154.096 62.3421 153.916ZM62.5296 151.156L62.5413 151.918H61.4456C61.137 151.918 60.8616 151.943 60.6195 151.994C60.3773 152.041 60.1741 152.113 60.0101 152.211C59.846 152.309 59.721 152.432 59.6351 152.58C59.5491 152.725 59.5062 152.895 59.5062 153.09C59.5062 153.289 59.5511 153.471 59.6409 153.635C59.7308 153.799 59.8655 153.93 60.0452 154.027C60.2288 154.121 60.4534 154.168 60.7191 154.168C61.0511 154.168 61.3441 154.098 61.598 153.957C61.8519 153.816 62.053 153.645 62.2015 153.441C62.3538 153.238 62.4359 153.041 62.4476 152.85L62.9105 153.371C62.8831 153.535 62.8089 153.717 62.6878 153.916C62.5667 154.115 62.4046 154.307 62.2015 154.49C62.0023 154.67 61.764 154.82 61.4866 154.941C61.2132 155.059 60.9046 155.117 60.5609 155.117C60.1312 155.117 59.7542 155.033 59.43 154.865C59.1097 154.697 58.8597 154.473 58.68 154.191C58.5042 153.906 58.4163 153.588 58.4163 153.236C58.4163 152.896 58.4827 152.598 58.6155 152.34C58.7484 152.078 58.9398 151.861 59.1898 151.689C59.4398 151.514 59.7405 151.381 60.0921 151.291C60.4437 151.201 60.8363 151.156 61.2698 151.156H62.5296ZM66.4844 155H65.4004V147.992C65.4004 147.535 65.4824 147.15 65.6465 146.838C65.8144 146.521 66.0547 146.283 66.3672 146.123C66.6797 145.959 67.0508 145.877 67.4805 145.877C67.6055 145.877 67.7305 145.885 67.8555 145.9C67.9844 145.916 68.1094 145.939 68.2305 145.971L68.1719 146.855C68.0898 146.836 67.9961 146.822 67.8906 146.814C67.789 146.807 67.6875 146.803 67.5859 146.803C67.3555 146.803 67.1562 146.85 66.9883 146.943C66.8242 147.033 66.6992 147.166 66.6133 147.342C66.5273 147.518 66.4844 147.734 66.4844 147.992V155ZM67.832 148.66V149.492H64.3984V148.66H67.832ZM71.2653 155.117C70.8239 155.117 70.4235 155.043 70.0641 154.895C69.7086 154.742 69.402 154.529 69.1442 154.256C68.8903 153.982 68.695 153.658 68.5583 153.283C68.4215 152.908 68.3532 152.498 68.3532 152.053V151.807C68.3532 151.291 68.4293 150.832 68.5817 150.43C68.734 150.023 68.9411 149.68 69.2028 149.398C69.4645 149.117 69.7614 148.904 70.0934 148.76C70.4254 148.615 70.7692 148.543 71.1247 148.543C71.5778 148.543 71.9684 148.621 72.2965 148.777C72.6286 148.934 72.9 149.152 73.111 149.434C73.3219 149.711 73.4782 150.039 73.5797 150.418C73.6813 150.793 73.7321 151.203 73.7321 151.648V152.135H68.9977V151.25H72.6481V151.168C72.6325 150.887 72.5739 150.613 72.4723 150.348C72.3747 150.082 72.2184 149.863 72.0036 149.691C71.7887 149.52 71.4958 149.434 71.1247 149.434C70.8786 149.434 70.652 149.486 70.445 149.592C70.2379 149.693 70.0602 149.846 69.9118 150.049C69.7633 150.252 69.6481 150.5 69.5661 150.793C69.484 151.086 69.443 151.424 69.443 151.807V152.053C69.443 152.354 69.484 152.637 69.5661 152.902C69.652 153.164 69.775 153.395 69.9352 153.594C70.0993 153.793 70.2965 153.949 70.527 154.062C70.7614 154.176 71.027 154.232 71.3239 154.232C71.7067 154.232 72.0309 154.154 72.2965 153.998C72.5622 153.842 72.7946 153.633 72.9938 153.371L73.65 153.893C73.5133 154.1 73.3395 154.297 73.1286 154.484C72.9176 154.672 72.6579 154.824 72.3493 154.941C72.0446 155.059 71.6833 155.117 71.2653 155.117ZM70.5211 147.723L71.6579 146H72.9645L71.3942 147.723H70.5211ZM77.3646 155.117C76.9232 155.117 76.5228 155.043 76.1634 154.895C75.8079 154.742 75.5013 154.529 75.2435 154.256C74.9896 153.982 74.7943 153.658 74.6575 153.283C74.5208 152.908 74.4525 152.498 74.4525 152.053V151.807C74.4525 151.291 74.5286 150.832 74.681 150.43C74.8333 150.023 75.0403 149.68 75.3021 149.398C75.5638 149.117 75.8607 148.904 76.1927 148.76C76.5247 148.615 76.8685 148.543 77.2239 148.543C77.6771 148.543 78.0677 148.621 78.3958 148.777C78.7278 148.934 78.9993 149.152 79.2103 149.434C79.4212 149.711 79.5775 150.039 79.679 150.418C79.7806 150.793 79.8314 151.203 79.8314 151.648V152.135H75.097V151.25H78.7474V151.168C78.7318 150.887 78.6732 150.613 78.5716 150.348C78.4739 150.082 78.3177 149.863 78.1028 149.691C77.888 149.52 77.595 149.434 77.2239 149.434C76.9778 149.434 76.7513 149.486 76.5443 149.592C76.3372 149.693 76.1595 149.846 76.011 150.049C75.8626 150.252 75.7474 150.5 75.6653 150.793C75.5833 151.086 75.5423 151.424 75.5423 151.807V152.053C75.5423 152.354 75.5833 152.637 75.6653 152.902C75.7513 153.164 75.8743 153.395 76.0345 153.594C76.1985 153.793 76.3958 153.949 76.6263 154.062C76.8607 154.176 77.1263 154.232 77.4232 154.232C77.806 154.232 78.1302 154.154 78.3958 153.998C78.6614 153.842 78.8939 153.633 79.0931 153.371L79.7493 153.893C79.6126 154.1 79.4388 154.297 79.2278 154.484C79.0169 154.672 78.7571 154.824 78.4485 154.941C78.1439 155.059 77.7825 155.117 77.3646 155.117ZM81.917 150.014V155H80.833V148.66H81.8584L81.917 150.014ZM81.6592 151.59L81.208 151.572C81.2119 151.139 81.2763 150.738 81.4013 150.371C81.5263 150 81.7021 149.678 81.9287 149.404C82.1553 149.131 82.4248 148.92 82.7373 148.771C83.0537 148.619 83.4033 148.543 83.7861 148.543C84.0986 148.543 84.3799 148.586 84.6299 148.672C84.8799 148.754 85.0928 148.887 85.2685 149.07C85.4482 149.254 85.5849 149.492 85.6787 149.785C85.7724 150.074 85.8193 150.428 85.8193 150.846V155H84.7295V150.834C84.7295 150.502 84.6806 150.236 84.583 150.037C84.4853 149.834 84.3428 149.688 84.1553 149.598C83.9678 149.504 83.7373 149.457 83.4638 149.457C83.1943 149.457 82.9482 149.514 82.7256 149.627C82.5068 149.74 82.3174 149.896 82.1572 150.096C82.001 150.295 81.8779 150.523 81.7881 150.781C81.7021 151.035 81.6592 151.305 81.6592 151.59ZM92.5687 148.66V149.492H89.1409V148.66H92.5687ZM90.3011 147.119H91.3851V153.43C91.3851 153.645 91.4183 153.807 91.4847 153.916C91.5511 154.025 91.637 154.098 91.7425 154.133C91.848 154.168 91.9612 154.186 92.0823 154.186C92.1722 154.186 92.2659 154.178 92.3636 154.162C92.4651 154.143 92.5413 154.127 92.5921 154.115L92.598 155C92.512 155.027 92.3987 155.053 92.2581 155.076C92.1214 155.104 91.9554 155.117 91.7601 155.117C91.4944 155.117 91.2503 155.064 91.0276 154.959C90.805 154.854 90.6273 154.678 90.4944 154.432C90.3655 154.182 90.3011 153.846 90.3011 153.424V147.119ZM94.7539 148.66V155H93.664V148.66H94.7539ZM93.582 146.979C93.582 146.803 93.6347 146.654 93.7402 146.533C93.8496 146.412 94.0097 146.352 94.2207 146.352C94.4277 146.352 94.5859 146.412 94.6953 146.533C94.8086 146.654 94.8652 146.803 94.8652 146.979C94.8652 147.146 94.8086 147.291 94.6953 147.412C94.5859 147.529 94.4277 147.588 94.2207 147.588C94.0097 147.588 93.8496 147.529 93.7402 147.412C93.6347 147.291 93.582 147.146 93.582 146.979ZM97.4078 146V155H96.318V146H97.4078ZM104.228 155.117C103.786 155.117 103.386 155.043 103.026 154.895C102.671 154.742 102.364 154.529 102.106 154.256C101.853 153.982 101.657 153.658 101.52 153.283C101.384 152.908 101.315 152.498 101.315 152.053V151.807C101.315 151.291 101.392 150.832 101.544 150.43C101.696 150.023 101.903 149.68 102.165 149.398C102.427 149.117 102.724 148.904 103.056 148.76C103.388 148.615 103.731 148.543 104.087 148.543C104.54 148.543 104.931 148.621 105.259 148.777C105.591 148.934 105.862 149.152 106.073 149.434C106.284 149.711 106.44 150.039 106.542 150.418C106.644 150.793 106.694 151.203 106.694 151.648V152.135H101.96V151.25H105.61V151.168C105.595 150.887 105.536 150.613 105.435 150.348C105.337 150.082 105.181 149.863 104.966 149.691C104.751 149.52 104.458 149.434 104.087 149.434C103.841 149.434 103.614 149.486 103.407 149.592C103.2 149.693 103.022 149.846 102.874 150.049C102.726 150.252 102.61 150.5 102.528 150.793C102.446 151.086 102.405 151.424 102.405 151.807V152.053C102.405 152.354 102.446 152.637 102.528 152.902C102.614 153.164 102.737 153.395 102.897 153.594C103.061 153.793 103.259 153.949 103.489 154.062C103.724 154.176 103.989 154.232 104.286 154.232C104.669 154.232 104.993 154.154 105.259 153.998C105.524 153.842 105.757 153.633 105.956 153.371L106.612 153.893C106.476 154.1 106.302 154.297 106.091 154.484C105.88 154.672 105.62 154.824 105.311 154.941C105.007 155.059 104.645 155.117 104.228 155.117ZM108.78 150.014V155H107.696V148.66H108.721L108.78 150.014ZM108.522 151.59L108.071 151.572C108.075 151.139 108.139 150.738 108.264 150.371C108.389 150 108.565 149.678 108.792 149.404C109.018 149.131 109.288 148.92 109.6 148.771C109.917 148.619 110.266 148.543 110.649 148.543C110.962 148.543 111.243 148.586 111.493 148.672C111.743 148.754 111.956 148.887 112.131 149.07C112.311 149.254 112.448 149.492 112.542 149.785C112.635 150.074 112.682 150.428 112.682 150.846V155H111.592V150.834C111.592 150.502 111.544 150.236 111.446 150.037C111.348 149.834 111.206 149.688 111.018 149.598C110.831 149.504 110.6 149.457 110.327 149.457C110.057 149.457 109.811 149.514 109.589 149.627C109.37 149.74 109.18 149.896 109.02 150.096C108.864 150.295 108.741 150.523 108.651 150.781C108.565 151.035 108.522 151.305 108.522 151.59ZM116.771 146H117.861V153.77L117.768 155H116.771V146ZM122.144 151.777V151.9C122.144 152.361 122.09 152.789 121.98 153.184C121.871 153.574 121.711 153.914 121.5 154.203C121.289 154.492 121.031 154.717 120.727 154.877C120.422 155.037 120.072 155.117 119.678 155.117C119.275 155.117 118.922 155.049 118.617 154.912C118.316 154.771 118.062 154.57 117.855 154.309C117.648 154.047 117.482 153.73 117.357 153.359C117.236 152.988 117.152 152.57 117.105 152.105V151.566C117.152 151.098 117.236 150.678 117.357 150.307C117.482 149.936 117.648 149.619 117.855 149.357C118.062 149.092 118.316 148.891 118.617 148.754C118.918 148.613 119.268 148.543 119.666 148.543C120.064 148.543 120.418 148.621 120.727 148.777C121.035 148.93 121.293 149.148 121.5 149.434C121.711 149.719 121.871 150.061 121.98 150.459C122.09 150.854 122.144 151.293 122.144 151.777ZM121.055 151.9V151.777C121.055 151.461 121.025 151.164 120.967 150.887C120.908 150.605 120.814 150.359 120.686 150.148C120.557 149.934 120.387 149.766 120.176 149.645C119.965 149.52 119.705 149.457 119.396 149.457C119.123 149.457 118.885 149.504 118.682 149.598C118.482 149.691 118.312 149.818 118.172 149.979C118.031 150.135 117.916 150.314 117.826 150.518C117.74 150.717 117.676 150.924 117.633 151.139V152.551C117.695 152.824 117.797 153.088 117.937 153.342C118.082 153.592 118.273 153.797 118.512 153.957C118.754 154.117 119.053 154.197 119.408 154.197C119.701 154.197 119.951 154.139 120.158 154.021C120.369 153.9 120.539 153.734 120.668 153.523C120.801 153.312 120.898 153.068 120.961 152.791C121.023 152.514 121.055 152.217 121.055 151.9ZM126.99 153.916V150.652C126.99 150.402 126.939 150.186 126.838 150.002C126.74 149.814 126.591 149.67 126.392 149.568C126.193 149.467 125.947 149.416 125.654 149.416C125.38 149.416 125.14 149.463 124.933 149.557C124.73 149.65 124.57 149.773 124.453 149.926C124.339 150.078 124.283 150.242 124.283 150.418H123.199C123.199 150.191 123.257 149.967 123.375 149.744C123.492 149.521 123.66 149.32 123.879 149.141C124.101 148.957 124.367 148.812 124.675 148.707C124.988 148.598 125.336 148.543 125.718 148.543C126.179 148.543 126.586 148.621 126.937 148.777C127.293 148.934 127.57 149.17 127.769 149.486C127.972 149.799 128.074 150.191 128.074 150.664V153.617C128.074 153.828 128.091 154.053 128.127 154.291C128.166 154.529 128.222 154.734 128.297 154.906V155H127.166C127.111 154.875 127.068 154.709 127.037 154.502C127.005 154.291 126.99 154.096 126.99 153.916ZM127.177 151.156L127.189 151.918H126.093C125.785 151.918 125.509 151.943 125.267 151.994C125.025 152.041 124.822 152.113 124.658 152.211C124.494 152.309 124.369 152.432 124.283 152.58C124.197 152.725 124.154 152.895 124.154 153.09C124.154 153.289 124.199 153.471 124.289 153.635C124.379 153.799 124.513 153.93 124.693 154.027C124.877 154.121 125.101 154.168 125.367 154.168C125.699 154.168 125.992 154.098 126.246 153.957C126.5 153.816 126.701 153.645 126.849 153.441C127.002 153.238 127.084 153.041 127.095 152.85L127.558 153.371C127.531 153.535 127.457 153.717 127.336 153.916C127.214 154.115 127.052 154.307 126.849 154.49C126.65 154.67 126.412 154.82 126.134 154.941C125.861 155.059 125.552 155.117 125.209 155.117C124.779 155.117 124.402 155.033 124.078 154.865C123.757 154.697 123.507 154.473 123.328 154.191C123.152 153.906 123.064 153.588 123.064 153.236C123.064 152.896 123.13 152.598 123.263 152.34C123.396 152.078 123.588 151.861 123.838 151.689C124.088 151.514 124.388 151.381 124.74 151.291C125.091 151.201 125.484 151.156 125.918 151.156H127.177ZM130.599 149.656V155H129.515V148.66H130.57L130.599 149.656ZM132.579 148.625L132.574 149.633C132.484 149.613 132.398 149.602 132.316 149.598C132.238 149.59 132.148 149.586 132.046 149.586C131.796 149.586 131.575 149.625 131.384 149.703C131.193 149.781 131.031 149.891 130.898 150.031C130.765 150.172 130.659 150.34 130.581 150.535C130.507 150.727 130.458 150.938 130.435 151.168L130.13 151.344C130.13 150.961 130.167 150.602 130.241 150.266C130.32 149.93 130.439 149.633 130.599 149.375C130.759 149.113 130.962 148.91 131.208 148.766C131.458 148.617 131.755 148.543 132.099 148.543C132.177 148.543 132.267 148.553 132.368 148.572C132.47 148.588 132.54 148.605 132.579 148.625ZM134.495 148.66V155H133.405V148.66H134.495ZM133.323 146.979C133.323 146.803 133.376 146.654 133.481 146.533C133.591 146.412 133.751 146.352 133.962 146.352C134.169 146.352 134.327 146.412 134.436 146.533C134.55 146.654 134.606 146.803 134.606 146.979C134.606 147.146 134.55 147.291 134.436 147.412C134.327 147.529 134.169 147.588 133.962 147.588C133.751 147.588 133.591 147.529 133.481 147.412C133.376 147.291 133.323 147.146 133.323 146.979ZM139.663 153.318C139.663 153.162 139.628 153.018 139.557 152.885C139.491 152.748 139.352 152.625 139.141 152.516C138.934 152.402 138.622 152.305 138.204 152.223C137.852 152.148 137.534 152.061 137.249 151.959C136.967 151.857 136.727 151.734 136.528 151.59C136.333 151.445 136.182 151.275 136.077 151.08C135.971 150.885 135.919 150.656 135.919 150.395C135.919 150.145 135.973 149.908 136.083 149.686C136.196 149.463 136.354 149.266 136.557 149.094C136.764 148.922 137.012 148.787 137.301 148.689C137.59 148.592 137.913 148.543 138.268 148.543C138.776 148.543 139.21 148.633 139.569 148.812C139.928 148.992 140.204 149.232 140.395 149.533C140.587 149.83 140.682 150.16 140.682 150.523H139.598C139.598 150.348 139.546 150.178 139.44 150.014C139.338 149.846 139.188 149.707 138.989 149.598C138.794 149.488 138.553 149.434 138.268 149.434C137.967 149.434 137.723 149.48 137.536 149.574C137.352 149.664 137.217 149.779 137.131 149.92C137.049 150.061 137.008 150.209 137.008 150.365C137.008 150.482 137.028 150.588 137.067 150.682C137.11 150.771 137.184 150.855 137.29 150.934C137.395 151.008 137.544 151.078 137.735 151.145C137.926 151.211 138.171 151.277 138.467 151.344C138.987 151.461 139.415 151.602 139.751 151.766C140.087 151.93 140.337 152.131 140.501 152.369C140.665 152.607 140.747 152.896 140.747 153.236C140.747 153.514 140.688 153.768 140.571 153.998C140.458 154.229 140.292 154.428 140.073 154.596C139.858 154.76 139.6 154.889 139.299 154.982C139.003 155.072 138.669 155.117 138.297 155.117C137.739 155.117 137.266 155.018 136.88 154.818C136.493 154.619 136.2 154.361 136.001 154.045C135.801 153.729 135.702 153.395 135.702 153.043H136.792C136.807 153.34 136.893 153.576 137.049 153.752C137.206 153.924 137.397 154.047 137.624 154.121C137.85 154.191 138.075 154.227 138.297 154.227C138.594 154.227 138.842 154.188 139.042 154.109C139.245 154.031 139.399 153.924 139.505 153.787C139.61 153.65 139.663 153.494 139.663 153.318ZM144.561 148.66V149.492H141.133V148.66H144.561ZM142.293 147.119H143.377V153.43C143.377 153.645 143.41 153.807 143.477 153.916C143.543 154.025 143.629 154.098 143.735 154.133C143.84 154.168 143.953 154.186 144.074 154.186C144.164 154.186 144.258 154.178 144.356 154.162C144.457 154.143 144.533 154.127 144.584 154.115L144.59 155C144.504 155.027 144.391 155.053 144.25 155.076C144.114 155.104 143.948 155.117 143.752 155.117C143.487 155.117 143.242 155.064 143.02 154.959C142.797 154.854 142.619 154.678 142.487 154.432C142.358 154.182 142.293 153.846 142.293 153.424V147.119ZM149.307 153.916V150.652C149.307 150.402 149.256 150.186 149.154 150.002C149.057 149.814 148.908 149.67 148.709 149.568C148.51 149.467 148.264 149.416 147.971 149.416C147.697 149.416 147.457 149.463 147.25 149.557C147.047 149.65 146.887 149.773 146.769 149.926C146.656 150.078 146.6 150.242 146.6 150.418H145.516C145.516 150.191 145.574 149.967 145.691 149.744C145.809 149.521 145.977 149.32 146.195 149.141C146.418 148.957 146.684 148.812 146.992 148.707C147.305 148.598 147.652 148.543 148.035 148.543C148.496 148.543 148.902 148.621 149.254 148.777C149.609 148.934 149.887 149.17 150.086 149.486C150.289 149.799 150.391 150.191 150.391 150.664V153.617C150.391 153.828 150.408 154.053 150.443 154.291C150.482 154.529 150.539 154.734 150.613 154.906V155H149.482C149.428 154.875 149.385 154.709 149.353 154.502C149.322 154.291 149.307 154.096 149.307 153.916ZM149.494 151.156L149.506 151.918H148.41C148.102 151.918 147.826 151.943 147.584 151.994C147.342 152.041 147.139 152.113 146.975 152.211C146.81 152.309 146.685 152.432 146.6 152.58C146.514 152.725 146.471 152.895 146.471 153.09C146.471 153.289 146.516 153.471 146.605 153.635C146.695 153.799 146.83 153.93 147.01 154.027C147.193 154.121 147.418 154.168 147.684 154.168C148.016 154.168 148.309 154.098 148.562 153.957C148.816 153.816 149.018 153.645 149.166 153.441C149.318 153.238 149.4 153.041 149.412 152.85L149.875 153.371C149.848 153.535 149.773 153.717 149.652 153.916C149.531 154.115 149.369 154.307 149.166 154.49C148.967 154.67 148.728 154.82 148.451 154.941C148.178 155.059 147.869 155.117 147.525 155.117C147.096 155.117 146.719 155.033 146.394 154.865C146.074 154.697 145.824 154.473 145.644 154.191C145.469 153.906 145.381 153.588 145.381 153.236C145.381 152.896 145.447 152.598 145.58 152.34C145.713 152.078 145.904 151.861 146.154 151.689C146.404 151.514 146.705 151.381 147.057 151.291C147.408 151.201 147.801 151.156 148.234 151.156H149.494Z" fill="black"/>
</svg>
