<svg version="1.2" xmlns="http://www.w3.org/2000/svg" viewBox="0 0 600 710" width="600" height="710">
	<title>Nyt Projekt</title>
	<style>
		.s0 { 
fill: #231f20; 
stroke: black;
stroke-width: 15;
}
 
	</style>
	<g id="Layer 1">
		<g id="&lt;Group&gt;">
			<path id="&lt;Path&gt;" class="s0" d="m475.4 533.5c36 6.4 152.3 32.6 118.5 91.5-14.4 25.1-45.5 39.4-71.3 49.7-29.4 11.7-60.3 19.4-91.4 25.1-63.8 11.3-129.4 13.2-193.9 7.4-61.9-5.8-126.7-17.8-182.4-46.4-25.5-13.1-70.6-42.5-49.4-76.9 18.4-29.7 63.6-40.8 95.5-47.4-27.3 8.8-57.9 19.2-79.2 39.4-9.1 8.9-16.1 21.1-10.7 34.1 5.3 13.2 18.7 22.5 30.7 29.8 51.4 30.7 115.7 41.8 174.2 48.3 63.1 7.2 127.1 6.9 189.8-1.1 30.9-4 61.8-9.8 91.6-18.8 27.1-8.2 56.6-18.5 77.9-38 54.6-50.1-67.3-87.3-99.9-96.7 9.6 1.8 9.3 2.7 0 0z"/>
			<path id="&lt;Path&gt;" class="s0" d="m371.5 297.1c30.7 1.5 63.2 7.2 90.7 21.4 23.6 12.1 44.4 37.6 23 62.3-18.9 21.9-52 29.2-79.1 34.2-31.4 6-63.6 9.4-95.5 11.7-61.2 4.5-128.2 3.8-185.4-21.1-21.7-9.5-52.6-29.3-42.8-57.5 9.2-26.7 45.1-37.9 69.6-44.1 15.1-3.8 30.4-6.3 45.8-7.7q11.7-1.1 23.2-1.3c0.7 2.9-15.3 5-18.5 5.8-29.6 7-61.6 15.3-87.1 32.9-9.4 6.4-22.5 17.7-16.3 30.5 6.1 12.7 22 20.3 34.1 25.7 28.5 12.5 59.5 18.9 90.1 23.4 62.5 9.2 127.5 11.8 188.2-8.2 14.3-4.6 28.1-10.3 41.1-17.6 10.5-5.9 27.1-15.8 27.2-29.7 0.1-12.8-14.3-22.2-23.9-28.1-13.8-8.3-29.1-14.1-44.4-19.2-7.1-2.4-14.4-4.6-21.8-6.7-2.9-0.8-19.2-3.9-18.2-6.7 15.4 0.8 0 0 0 0z"/>
			<path id="&lt;Path&gt;" class="s0" d="m83.7 384.8c-1.3 74.1 31.4 149.6 86.2 199.3q-0.8-0.6-1.6-1.1c70.9 34 161.7 43.6 234.3 9.9-68.5 45.6-164.6 36.4-236.5 3.8-13.3-5.9-23.7-20.9-32.5-32.2-12.8-16.1-23.4-34-31.6-52.9-16.7-38.8-25.3-84.8-18.3-126.8 0 4.8-1.5 9.4 0 0z"/>
			<path id="&lt;Path&gt;" class="s0" d="m489.6 397.3c6.5-24.3 36.1-37.4 58.9-27.5 25.5 10.9 24.8 40.9 15 62.7-9.9 21.9-27.5 43-46.9 57.1-21.4 15.6-47.3 25.5-62.4 48.5 7-22.2 26.2-36.6 43.6-50.3 16.9-13.2 30.8-29.1 42.3-47 10-15.6 24.6-44.2 4.6-58.2-18.3-12.7-43.9-2.5-55.1 14.7 1.4-5.7 3.2-5 0 0z"/>
			<path id="&lt;Path&gt;" class="s0" d="m291.1 46.5c-34.5-25.7-90.1-43-131.9-25.8-39.4 16.3-62.1 70.9-40 109 7.7 13.3 20.1 25.2 30.6 36.3 18.2 18.9 37.4 36.8 55.5 55.7 33.9 35.3 63.9 75.4 75.5 123.8-22.6-48.8-58.5-86.5-98.1-122.2-14.7-13.2-29.6-26.3-43.7-40.1-13.8-13.6-30.1-28.7-39.1-46.2-23.9-45.7-0.5-106.6 45.2-128.2 46.9-22.5 112.7 1 146 37.7-4.6-3.5-8-8.8 0 0z"/>
			<path id="&lt;Path&gt;" class="s0" d="m269.6 96c35.1-33.8 95.1-56.2 141.9-35.6 38.9 17.2 62 58.7 54.3 100.2-9 46.7-56.8 78.9-89.4 109-39.3 36.1-75.4 75.7-96.5 125.4 13.7-48.5 45.2-89.4 80.1-124.9 18-18.4 37-35.9 55.5-53.9 13.5-13.4 26.7-28.8 33.9-46.7 16.4-39.6-8.6-85.6-46.9-101.2-43.7-17.6-97 1.2-132.9 27.7 4.2-4.1 4.8-3.5 0 0z"/>
			<path id="&lt;Path&gt;" class="s0" d="m437.6 572.4c14.8 2.3 44.2 14.3 38.3 34.4-5.9 20.1-37 27.3-54.8 29.5 14.3-7.6 32.8-13.8 43.7-26.3 13.5-15.8-16.4-31.2-27.2-37.6 2.5 0.4 4.1 2.5 0 0z"/>
			<path id="&lt;Path&gt;" class="s0" d="m146.4 570.2c-9.7 4.5-45.7 19.5-28.3 33.4 16.4 13.1 41.1 17.1 60.8 23.7-21-1.6-49.3-5.3-65.8-20-21.8-19.3 19.2-34.6 33.3-37.1-4.6 2.2-5.1 0.9 0 0z"/>
			<path id="&lt;Path&gt;" class="s0" d="m229.1 342c-8.7 1.4-17.3 2.7-26 4.3-11 1.9-60.4 8.5-40.4 27.1-17.4-11.3 4-21.7 15-24.7 16.5-4.7 34.2-6.7 51.4-6.7 0 0-7.5 0 0 0z"/>
			<path id="&lt;Path&gt;" class="s0" d="m367.3 382.1c9-2.9 18-5.8 27-9 9.7-3.3 20.4-6.8 28.7-13.1 8.9-6.7 1.8-12.5-5.5-16.4 4.7 1.4 12.4 4.3 12.2 10.3-0.1 6.8-9.1 11.5-14.4 14.1-14.7 7.5-31.7 12-48 14.1 0 0 7-0.8 0 0z"/>
			<path id="&lt;Path&gt;" class="s0" d="m515.6 571c12.1 3.3 73.5 31.3 41.8 46.4 23.4-17.9-29.9-40.3-41.8-46.4 6.1 1.7 5.7 2.9 0 0z"/>
			<path id="&lt;Path&gt;" class="s0" d="m490.9 462.6c5.1-5.9 42.8-42.3 27.8-47.8 20.9 2.1-22.2 43.8-27.8 47.8 3.3-3.9 4.2-3 0 0z"/>
			<path id="&lt;Path&gt;" class="s0" d="m391.6 563.7c-28.7 16.3-65.8 23.1-98.6 20.6 33.5-2.6 67.1-8.5 98.6-20.6-7.3 4.2-7.9 3 0 0z"/>
		</g>
	</g>
</svg>