<svg version="1.2" xmlns="http://www.w3.org/2000/svg" viewBox="0 0 1000 600" width="1000" height="600">
	<title>coffee heart</title>
	<style>
		.s0 { fill: #231f20 } 
	</style>
	<g id="Layer 1">
		<g id="&lt;Group&gt;">
			<path id="&lt;Path&gt;" class="s0" d="m370.5 422.5c24.7 4.4 104.6 22.4 81.4 62.8-9.9 17.3-31.3 27.1-49 34.2-20.2 8-41.4 13.3-62.8 17.2-43.8 7.8-88.9 9.1-133.2 5.1-42.5-4-87-12.2-125.3-31.9-17.5-9-48.5-29.2-33.9-52.8 12.6-20.4 43.7-28 65.6-32.6-18.8 6.1-39.8 13.2-54.4 27.1-6.3 6.1-11.1 14.5-7.4 23.4 3.7 9.1 12.9 15.5 21.1 20.5 35.3 21.1 79.5 28.7 119.7 33.2 43.3 4.9 87.3 4.7 130.4-0.8 21.2-2.7 42.4-6.7 62.9-12.9 18.6-5.6 38.9-12.7 53.5-26.1 37.5-34.4-46.2-60-68.6-66.4 6.6 1.2 6.4 1.8 0 0z"/>
			<path id="&lt;Path&gt;" class="s0" d="m299.1 260.1c21.1 1 43.4 4.9 62.3 14.7 16.2 8.3 30.5 25.8 15.8 42.8-13 15-35.7 20-54.3 23.5-21.6 4.1-43.7 6.4-65.6 8-42.1 3.1-88.1 2.6-127.4-14.5-14.9-6.5-36.1-20.1-29.4-39.5 6.3-18.3 31-26 47.8-30.3 10.4-2.6 20.9-4.3 31.5-5.3q8-0.7 15.9-0.9c0.5 2-10.5 3.5-12.7 4-20.3 4.8-42.3 10.5-59.8 22.6-6.5 4.4-15.5 12.2-11.2 21 4.2 8.7 15.1 13.9 23.4 17.6 19.6 8.6 40.9 13 61.9 16.1 42.9 6.3 87.6 8.1 129.3-5.6 9.8-3.2 19.3-7.1 28.2-12.1 7.2-4.1 18.6-10.9 18.7-20.4 0.1-8.8-9.8-15.3-16.4-19.3-9.5-5.7-20-9.7-30.5-13.2-4.9-1.7-9.9-3.2-15-4.6-2-0.6-13.2-2.7-12.5-4.6 10.6 0.5 0 0 0 0z"/>
			<path id="&lt;Path&gt;" class="s0" d="m101.4 320.3c-0.9 50.9 21.6 102.8 59.2 136.9q-0.5-0.4-1.1-0.7c48.7 23.3 111.1 29.9 161 6.8-47.1 31.3-113.1 25-162.5 2.6-9.1-4.1-16.3-14.4-22.3-22.1-8.8-11.1-16.1-23.4-21.7-36.4-11.5-26.6-17.4-58.2-12.6-87.1 0 3.3-1 6.5 0 0z"/>
			<path id="&lt;Path&gt;" class="s0" d="m380.2 328.9c4.5-16.7 24.8-25.7 40.5-18.9 17.5 7.5 17 28.1 10.3 43.1-6.8 15-18.9 29.5-32.2 39.2-14.7 10.7-32.5 17.5-42.9 33.3 4.8-15.2 18-25.1 30-34.5 11.6-9.1 21.1-20 29-32.3 6.9-10.7 16.9-30.4 3.2-40-12.6-8.7-30.2-1.7-37.9 10.1 1-3.9 2.2-3.4 0 0z"/>
			<path id="&lt;Path&gt;" class="s0" d="m243.9 87.9c-23.7-17.6-61.9-29.5-90.6-17.7-27.1 11.2-42.7 48.7-27.5 74.9 5.3 9.1 13.8 17.3 21 24.9 12.5 13 25.7 25.3 38.1 38.3 23.3 24.2 43.9 51.8 51.9 85-15.5-33.5-40.2-59.4-67.4-83.9-10.1-9.1-20.3-18.1-30-27.6-9.5-9.3-20.7-19.7-26.9-31.7-16.4-31.4-0.3-73.2 31.1-88.1 32.2-15.4 77.4 0.7 100.3 25.9-3.2-2.4-5.5-6 0 0z"/>
			<path id="&lt;Path&gt;" class="s0" d="m229.1 121.9c24.1-23.2 65.3-38.6 97.5-24.4 26.7 11.8 42.6 40.3 37.3 68.8-6.2 32.1-39 54.2-61.4 74.9-27 24.8-51.8 52-66.3 86.1 9.4-33.3 31-61.4 55-85.8 12.4-12.6 25.4-24.6 38.1-37 9.3-9.2 18.4-19.8 23.3-32.1 11.3-27.2-5.9-58.8-32.2-69.5-30-12.1-66.6 0.8-91.3 19 2.9-2.8 3.3-2.4 0 0z"/>
			<path id="&lt;Path&gt;" class="s0" d="m344.5 449.2c10.2 1.6 30.4 9.8 26.3 23.6-4 13.8-25.4 18.8-37.6 20.3 9.8-5.2 22.5-9.5 30-18.1 9.3-10.8-11.3-21.4-18.7-25.8 1.7 0.3 2.8 1.7 0 0z"/>
			<path id="&lt;Path&gt;" class="s0" d="m144.5 447.7c-6.7 3.1-31.4 13.4-19.5 22.9 11.3 9 28.3 11.8 41.8 16.3-14.4-1.1-33.9-3.6-45.2-13.7-15-13.3 13.2-23.8 22.9-25.5-3.2 1.5-3.5 0.6 0 0z"/>
			<path id="&lt;Path&gt;" class="s0" d="m201.3 290.9c-6 1-11.9 1.9-17.9 3-7.5 1.3-41.5 5.8-27.7 18.6-12-7.8 2.7-14.9 10.3-17 11.3-3.2 23.5-4.6 35.3-4.6 0 0-5.2 0 0 0z"/>
			<path id="&lt;Path&gt;" class="s0" d="m296.2 318.5c6.2-2 12.4-4 18.6-6.2 6.6-2.3 14-4.7 19.7-9 6.1-4.6 1.2-8.6-3.8-11.3 3.2 1 8.5 3 8.4 7.1-0.1 4.7-6.3 7.9-9.9 9.7-10.1 5.1-21.8 8.2-33 9.7 0 0 4.8-0.6 0 0z"/>
			<path id="&lt;Path&gt;" class="s0" d="m398.1 448.2c8.3 2.3 50.5 21.5 28.7 31.9 16.1-12.3-20.5-27.7-28.7-31.9 4.2 1.2 3.9 2 0 0z"/>
			<path id="&lt;Path&gt;" class="s0" d="m381.1 373.8c3.5-4.1 29.4-29.1 19.1-32.9 14.4 1.5-15.2 30.1-19.1 32.9 2.3-2.7 2.9-2.1 0 0z"/>
			<path id="&lt;Path&gt;" class="s0" d="m312.9 443.2c-19.7 11.2-45.2 15.9-67.7 14.2 23-1.8 46.1-5.9 67.7-14.2-5 2.9-5.4 2.1 0 0z"/>
		</g>
	</g>
</svg>